<?xml version="1.0" encoding="utf-8"?>
<!-- Generator: Adobe Illustrator 24.1.1, SVG Export Plug-In . SVG Version: 6.00 Build 0)  -->
<svg version="1.1" id="Layer_1" xmlns="http://www.w3.org/2000/svg" xmlns:xlink="http://www.w3.org/1999/xlink" x="0px" y="0px"
	 viewBox="0 0 250 250" style="enable-background:new 0 0 250 250;" xml:space="preserve">
<style type="text/css">
	.st0{fill:#f4b619;}
	.st1{fill:#DF285A;}
	.st2{fill:#4e73df;}
</style>
<path class="st0" d="M65.5,78.8l54.5,30.9c2.9,1.7,6.5,1.7,9.4,0l54.6-31c6.4-3.7,6.4-12.9,0-16.6l-54-30.9c-2.9-1.7-6.5-1.7-9.4,0
	l-55,31C59.1,65.8,59.1,75.1,65.5,78.8z"/>
<path class="st1" d="M213.9,175.4v-62.5c0-7.3-7.9-11.9-14.3-8.3l-55.3,31.6c-3,1.7-4.8,4.9-4.8,8.3V207c0,7.3,7.9,11.9,14.3,8.3
	l55.3-31.6C212.1,182,213.9,178.8,213.9,175.4z"/>
<path class="st2" d="M40.9,183.7l55.3,31.6c6.4,3.6,14.3-1,14.3-8.3v-63c0-3.4-1.9-6.6-4.9-8.3l-55.3-31.2c-6.4-3.6-14.2,1-14.2,8.3
	v62.6C36.1,178.8,37.9,182,40.9,183.7z"/>
</svg>
