<?xml version="1.0" encoding="utf-8"?>
<!-- Generator: Adobe Illustrator 24.0.1, SVG Export Plug-In . SVG Version: 6.00 Build 0)  -->
<svg version="1.1" xmlns="http://www.w3.org/2000/svg" xmlns:xlink="http://www.w3.org/1999/xlink" x="0px" y="0px"
	 viewBox="0 0 219.7 32.9" style="enable-background:new 0 0 219.7 32.9;" xml:space="preserve">
<style type="text/css">
	.st0{fill:#ffff;}
	.st1{fill:#FCC116;}
	.st2{fill:#DE2659;}
	.st3{fill:#45A7DF;}
</style>
<g id="Layer_1">
	<g>
		<path class="st0" d="M48.8,12c-0.4-0.4-0.9-0.8-1.5-1.1c-0.6-0.3-1.4-0.5-2.3-0.5c-1,0-1.9,0.2-2.6,0.7s-1.4,1.2-1.8,2
			C40.2,14,40,15,40,16.1c0,1.2,0.2,2.2,0.6,3c0.4,0.9,1,1.6,1.7,2c0.7,0.5,1.6,0.7,2.6,0.7c0.9,0,1.7-0.2,2.3-0.5
			c0.7-0.3,1.2-0.7,1.6-1.1c0.4-0.4,0.6-0.6,0.6-0.7l1.7,2.3c0,0.1-0.3,0.4-0.8,0.9c-0.5,0.5-1.2,1-2.2,1.5c-1,0.5-2.1,0.7-3.5,0.7
			c-1.6,0-2.9-0.3-4.2-1c-1.2-0.7-2.2-1.7-2.9-3c-0.7-1.3-1.1-2.9-1.1-4.7c0-1.8,0.4-3.4,1.1-4.7s1.8-2.3,3-3s2.6-1,4.1-1
			c1.3,0,2.4,0.2,3.3,0.7c0.9,0.4,1.6,0.9,2.1,1.4c0.5,0.5,0.7,0.8,0.9,1l-1.8,2.2C49.3,12.6,49.1,12.4,48.8,12z"/>
		<path class="st0" d="M60.5,15.1C60.3,15,60,15,59.7,15c-0.8,0-1.5,0.3-2,0.9c-0.6,0.6-1,1.3-1.1,2.2v6.7h-3.3V12.1h3.1l0.2,2.3
			c0.3-0.7,0.8-1.3,1.5-1.8c0.7-0.5,1.4-0.8,2.2-0.8c0.3,0,0.5,0,0.7,0c0.2,0,0.3,0.1,0.3,0.1l-0.4,3.2
			C60.8,15.2,60.7,15.1,60.5,15.1z"/>
		<path class="st0" d="M67.8,28.7c-0.6,0.5-1.3,0.8-2.3,0.8c-0.5,0-1,0-1.5-0.1c-0.4-0.1-0.8-0.2-1-0.3s-0.4-0.2-0.5-0.2l0.7-2.4
			c0,0,0.2,0.1,0.5,0.2c0.3,0.1,0.6,0.2,0.9,0.2c0.3,0,0.6-0.1,0.8-0.2c0.2-0.2,0.4-0.5,0.5-0.9l0.4-1.1l-4.8-12.4h3.5l3,9.4l3-9.4
			h3.5L69.4,26C68.9,27.3,68.3,28.2,67.8,28.7z"/>
		<path class="st0" d="M88.4,21.8c-0.5,1-1.1,1.8-2,2.3c-0.8,0.6-1.8,0.8-2.9,0.8c-1.7,0-2.9-0.7-3.8-2v6.3h-3.3V12.1h3.1l0.2,1.9
			c0.3-0.4,0.8-0.9,1.4-1.4c0.6-0.5,1.5-0.7,2.6-0.7s2,0.3,2.8,0.8c0.8,0.6,1.4,1.3,1.9,2.3c0.4,1,0.7,2.1,0.7,3.4
			C89.1,19.7,88.9,20.8,88.4,21.8z M85,15.6c-0.5-0.8-1.3-1.2-2.2-1.2c-1,0-1.7,0.4-2.3,1.2c-0.6,0.8-0.8,1.7-0.8,2.8
			c0,1.1,0.3,2.1,0.8,2.9s1.3,1.2,2.2,1.2c1,0,1.7-0.4,2.3-1.2c0.6-0.8,0.8-1.7,0.8-2.9C85.8,17.3,85.5,16.3,85,15.6z"/>
		<path class="st0" d="M97.5,24.9C97,25,96.5,25,96,25c-0.6,0-1.1-0.1-1.6-0.2c-0.5-0.1-0.9-0.4-1.3-0.7c-0.4-0.4-0.6-0.8-0.8-1.3
			c-0.1-0.5-0.2-1.1-0.2-1.9v-6.3h-1.8v-2.4h1.8l0.2-3.3h3v3.3h3.3v2.4h-3.3v5.7c0,0.8,0.1,1.4,0.3,1.7c0.1,0.2,0.3,0.3,0.5,0.4
			c0.2,0.1,0.4,0.2,0.7,0.2c0.5,0,1-0.1,1.5-0.2l0.3,2.3C98.4,24.7,98,24.8,97.5,24.9z"/>
		<path class="st0" d="M111.9,21.9c-0.5,1-1.3,1.8-2.3,2.3c-1,0.5-2.1,0.8-3.4,0.8s-2.4-0.3-3.4-0.8c-1-0.5-1.7-1.3-2.3-2.3
			c-0.5-1-0.8-2.1-0.8-3.5c0-1.3,0.3-2.5,0.8-3.5c0.5-1,1.3-1.8,2.3-2.3c1-0.5,2.1-0.8,3.4-0.8s2.4,0.3,3.4,0.8
			c1,0.5,1.7,1.3,2.3,2.3c0.5,1,0.8,2.2,0.8,3.5C112.7,19.8,112.5,21,111.9,21.9z M108.6,15.5c-0.5-0.8-1.3-1.1-2.2-1.1
			c-1,0-1.7,0.4-2.3,1.1c-0.5,0.8-0.8,1.7-0.8,3c0,1.2,0.3,2.2,0.8,2.9c0.5,0.8,1.3,1.1,2.3,1.1c1,0,1.7-0.4,2.2-1.1
			c0.5-0.8,0.8-1.7,0.8-2.9C109.3,17.3,109.1,16.3,108.6,15.5z"/>
		<path class="st0" d="M126.8,11.4c-0.4-0.4-0.9-0.8-1.6-1.2c-0.7-0.4-1.5-0.6-2.5-0.6c-1.1,0-2,0.3-2.9,0.8c-0.8,0.6-1.5,1.3-2,2.3
			c-0.5,1-0.7,2.1-0.7,3.4s0.2,2.4,0.7,3.4s1.1,1.8,1.9,2.3s1.8,0.8,2.9,0.8c1,0,1.8-0.2,2.5-0.6c0.7-0.4,1.3-0.8,1.7-1.3
			s0.6-0.7,0.6-0.8l1.5,1.6c0,0.1-0.3,0.4-0.8,1c-0.5,0.6-1.2,1.1-2.2,1.6c-0.9,0.5-2.1,0.7-3.5,0.7c-1.5,0-2.9-0.3-4.1-1
			c-1.2-0.7-2.1-1.7-2.8-3c-0.7-1.3-1-2.9-1-4.7c0-1.8,0.4-3.3,1.1-4.7c0.7-1.3,1.7-2.4,2.9-3.1s2.6-1.1,4-1.1
			c1.3,0,2.4,0.2,3.3,0.7c0.9,0.5,1.6,0.9,2.1,1.4c0.5,0.5,0.7,0.9,0.8,1.1l-1.5,1.6C127.4,12.1,127.2,11.9,126.8,11.4z"/>
		<path class="st0" d="M141.8,22c-0.5,1-1.2,1.7-2.1,2.3s-2,0.8-3.1,0.8c-1.2,0-2.3-0.3-3.2-0.8s-1.6-1.3-2.1-2.3s-0.8-2.1-0.8-3.4
			c0-1.3,0.3-2.4,0.8-3.4c0.5-1,1.2-1.7,2.1-2.3c0.9-0.5,2-0.8,3.1-0.8c1.2,0,2.2,0.3,3.2,0.8s1.6,1.3,2.1,2.3
			c0.5,1,0.8,2.1,0.8,3.4C142.6,19.9,142.3,21,141.8,22z M139.2,15.2c-0.6-0.8-1.5-1.3-2.6-1.3s-2,0.4-2.6,1.3
			c-0.6,0.8-0.9,1.9-0.9,3.3c0,1.4,0.3,2.5,0.9,3.3c0.6,0.8,1.5,1.3,2.6,1.3c1.1,0,2-0.4,2.6-1.3c0.6-0.8,0.9-1.9,0.9-3.3
			C140.1,17.2,139.8,16.1,139.2,15.2z"/>
		<path class="st0" d="M153.6,17.4c0-1-0.2-1.8-0.6-2.4s-1-0.8-1.9-0.8c-0.6,0-1.1,0.2-1.6,0.5c-0.5,0.3-0.9,0.8-1.2,1.3
			s-0.5,1-0.6,1.4v7.4h-2.4V12.3h2.2l0.2,2.3c0.4-0.7,1-1.3,1.7-1.8c0.7-0.5,1.5-0.7,2.5-0.7c1.3,0,2.3,0.4,3,1.2
			c0.7,0.8,1.1,1.9,1.1,3.5v8.1h-2.4V17.4z"/>
		<path class="st0" d="M162.6,20.6c0,1,0.1,1.7,0.4,2c0.3,0.3,0.8,0.5,1.4,0.5c0.2,0,0.5,0,0.8-0.1c0.3,0,0.4-0.1,0.6-0.1l0.3,1.8
			c-0.2,0.1-0.6,0.2-1,0.3c-0.4,0.1-0.9,0.1-1.3,0.1c-1.1,0-2-0.3-2.6-1c-0.3-0.3-0.6-0.8-0.7-1.3c-0.1-0.5-0.2-1.1-0.2-2v-6.7h-1.8
			v-1.8h1.8l0.3-3.4h2.2v3.4h3.5v1.8h-3.5V20.6z"/>
		<path class="st0" d="M174.9,14.5c-0.2,0-0.4-0.1-0.6-0.1c-0.7,0-1.2,0.2-1.8,0.5c-0.4,0.3-0.7,0.7-1.1,1.1
			c-0.3,0.5-0.5,1.1-0.7,1.7v7h-2.4V12.3h2.2l0.2,2.4c0.3-0.8,0.9-1.4,1.5-1.9c0.7-0.5,1.4-0.8,2.2-0.8c0.3,0,0.5,0,0.6,0
			c0.2,0,0.3,0.1,0.3,0.1l-0.4,2.4C175.1,14.5,175,14.5,174.9,14.5z"/>
		<path class="st0" d="M184.7,24.2c-0.1-0.3-0.1-0.6-0.1-0.9c-1,1.2-2.3,1.8-4,1.8c-1.1,0-2-0.3-2.8-1c-0.8-0.6-1.1-1.6-1.1-2.8
			c0-1.2,0.3-2,1-2.5c0.7-0.5,1.5-0.9,2.3-1.2c0.5-0.1,1.2-0.3,2-0.3c0.8-0.1,1.6-0.1,2.5-0.1v-0.8c0-0.8-0.3-1.5-0.8-1.8
			c-0.5-0.4-1.2-0.6-2-0.6c-0.7,0-1.4,0.1-2.1,0.3s-1.2,0.5-1.7,0.8l-0.8-1.7c0.6-0.3,1.3-0.6,2.1-0.9c0.8-0.2,1.6-0.4,2.5-0.4
			c1.7,0,2.9,0.4,3.8,1.1c0.4,0.4,0.8,0.8,1,1.4c0.2,0.5,0.4,1.3,0.4,2.1v5.4c0,0.6,0,1.1,0.1,1.5c0.1,0.4,0.2,0.8,0.4,1.1h-2.6
			C184.9,24.7,184.8,24.5,184.7,24.2z M183.2,18.7c-0.6,0-1,0.1-1.4,0.1c-0.7,0.1-1.2,0.3-1.8,0.6c-0.5,0.3-0.8,0.9-0.8,1.6
			s0.2,1.3,0.7,1.7c0.4,0.3,1,0.5,1.6,0.5c0.6,0,1.1-0.2,1.7-0.5c0.6-0.3,1-0.8,1.4-1.4v-2.7C184.2,18.6,183.7,18.7,183.2,18.7z"/>
		<path class="st0" d="M198.4,15.3c-0.3-0.3-0.7-0.6-1.1-0.8c-0.5-0.2-1-0.4-1.6-0.4c-0.7,0-1.3,0.2-1.9,0.5s-1,0.8-1.4,1.5
			c-0.3,0.7-0.5,1.5-0.5,2.4c0,1.4,0.4,2.5,1.1,3.3c0.7,0.8,1.6,1.1,2.7,1.1c0.6,0,1.1-0.1,1.6-0.4c0.5-0.2,0.9-0.5,1.2-0.8
			s0.5-0.5,0.5-0.6l1.2,1.5c0,0-0.2,0.2-0.5,0.6c-0.3,0.4-0.9,0.7-1.7,1.1c-0.8,0.4-1.7,0.5-2.7,0.5c-1.1,0-2.1-0.3-3-0.8
			c-0.9-0.5-1.6-1.3-2.1-2.3s-0.8-2.1-0.8-3.4c0-1.3,0.3-2.4,0.8-3.4c0.5-1,1.3-1.7,2.2-2.3s1.9-0.8,3-0.8c1,0,1.8,0.2,2.5,0.5
			c0.7,0.3,1.2,0.6,1.5,1c0.3,0.3,0.6,0.6,0.7,0.8l-1.3,1.4C198.8,15.7,198.7,15.6,198.4,15.3z"/>
		<path class="st0" d="M205.3,20.6c0,1,0.1,1.7,0.4,2c0.3,0.3,0.8,0.5,1.4,0.5c0.2,0,0.5,0,0.8-0.1c0.3,0,0.4-0.1,0.6-0.1l0.3,1.8
			c-0.2,0.1-0.6,0.2-1,0.3c-0.4,0.1-0.9,0.1-1.3,0.1c-1.1,0-2-0.3-2.6-1c-0.3-0.3-0.6-0.8-0.7-1.3c-0.1-0.5-0.2-1.1-0.2-2v-6.7h-1.8
			v-1.8h1.8l0.3-3.4h2.2v3.4h3.5v1.8h-3.5V20.6z"/>
		<path class="st0" d="M218.3,23.9c-0.9,0.8-2.1,1.2-3.7,1.2c-1.1,0-2.1-0.2-3-0.7c-0.9-0.5-1.5-1-1.9-1.5l1.3-1.5
			c0.4,0.5,0.9,0.9,1.6,1.2c0.7,0.4,1.4,0.5,2.1,0.5c0.7,0,1.3-0.1,1.8-0.4s0.6-0.7,0.6-1.2c0-0.5-0.2-0.8-0.5-1.1
			c-0.4-0.2-0.8-0.4-1.4-0.7c-1.1-0.4-1.9-0.6-2.3-0.8c-0.7-0.3-1.2-0.6-1.8-1.1c-0.5-0.5-0.8-1.2-0.8-2.1c0-1.1,0.4-2,1.3-2.7
			c0.8-0.7,2-1,3.3-1c0.8,0,1.5,0.1,2.2,0.3c0.7,0.2,1.2,0.5,1.6,0.8s0.6,0.5,0.7,0.5l-1,1.6c-0.4-0.4-1-0.7-1.6-1
			c-0.6-0.3-1.2-0.4-1.8-0.4c-0.7,0-1.2,0.1-1.7,0.4c-0.4,0.3-0.6,0.6-0.6,1.2c0,0.5,0.2,0.8,0.5,1c0.3,0.2,0.8,0.4,1.5,0.6l1.6,0.5
			L217,18c1.7,0.7,2.5,1.8,2.5,3.2C219.5,22.2,219.1,23.1,218.3,23.9z"/>
	</g>
	<path class="st1" d="M2.5,7.1l12.5,7.1l12.5-7.1L15.1,0L2.5,7.1z"/>
	<path class="st2" d="M30.1,25.8V11.5l-12.6,7.2v14.3L30.1,25.8z"/>
	<path class="st3" d="M0,25.8l12.6,7.2V18.6L0,11.5V25.8z"/>
</g>
<g id="Layer_2">
</g>
</svg>
